<?xml version="1.0" encoding="UTF-8" standalone="no"?>
<!-- Created with Inkscape (http://www.inkscape.org/) -->

<svg
   width="210mm"
   height="297mm"
   viewBox="0 0 210 297"
   version="1.1"
   id="svg929"
   inkscape:version="1.2.2 (b0a8486541, 2022-12-01)"
   sodipodi:docname="guyleen.svg"
   xmlns:inkscape="http://www.inkscape.org/namespaces/inkscape"
   xmlns:sodipodi="http://sodipodi.sourceforge.net/DTD/sodipodi-0.dtd"
   xmlns="http://www.w3.org/2000/svg"
   xmlns:svg="http://www.w3.org/2000/svg">
  <sodipodi:namedview
     id="namedview931"
     pagecolor="#505050"
     bordercolor="#eeeeee"
     borderopacity="1"
     inkscape:showpageshadow="0"
     inkscape:pageopacity="0"
     inkscape:pagecheckerboard="0"
     inkscape:deskcolor="#505050"
     inkscape:document-units="mm"
     showgrid="false"
     inkscape:zoom="0.41834271"
     inkscape:cx="181.66923"
     inkscape:cy="476.88174"
     inkscape:window-width="1366"
     inkscape:window-height="744"
     inkscape:window-x="0"
     inkscape:window-y="0"
     inkscape:window-maximized="1"
     inkscape:current-layer="layer1" />
  <defs
     id="defs926" />
  <g
     inkscape:label="Layer 1"
     inkscape:groupmode="layer"
     id="layer1">
    <path
       style="fill:#552200;stroke-width:0.264583"
       d="m 50.312946,209.77103 3.513826,92.70844 80.448628,1.29339 -5.69345,-89.71668 z"
       id="path1394" />
    <path
       style="fill:#d45500;stroke-width:0.264583"
       d="M 69.627564,50.475774 58.201287,76.162492 84.237345,96.468267 111.07922,84.659659 113.343,70.730022 l 5.93241,3.649046 6.30638,-6.815574 -5.48484,-12.888566 -7.34074,6.853431 -8.13407,-15.801139 -33.606032,-0.816118 z"
       id="path1059" />
    <path
       style="fill:#d45500;stroke-width:0.264583"
       d="m 86.609451,106.38808 0.509595,-16.504927 21.193504,-8.590581 3.71432,19.272258 z"
       id="path1061" />
    <path
       style="fill:#2b1100;stroke-width:0.264583"
       d="m 73.061887,27.155444 -20.85055,5.588807 6.073161,12.76427 24.921893,5.537893 23.419089,-2.307513 3.21967,16.067701 9.65263,-10.214541 5.39442,13.424907 -6.05905,5.245929 -5.92977,-1.787512 -3.00532,12.765844 23.02001,-10.831145 2.17657,-27.119587 -17.93402,-22.766975 z"
       id="path1189" />
    <path
       style="fill:#ffaaaa;stroke-width:0.264583"
       d="m 85.506204,106.53836 28.177786,-12.201393 32.34637,20.947773 17.50125,79.56578 -29.75278,3.88132 -4.51439,28.72321 -72.890689,-4.56153 2.41173,-27.57444 -25.455668,4.00549 10.155984,-79.85347 12.985268,-15.9092 z"
       id="path1317" />
    <path
       style="fill:#000080;stroke-width:0.264583"
       d="m 85.967971,106.16211 -29.441899,-3.1231 -14.385856,15.17556 -13.230722,81.31956 7.870804,4.78889 50.12724,-15.28552 -4.933688,-22.90434 -17.699934,4.72928 3.110214,-38.94712 z"
       id="path1382" />
    <path
       style="fill:#000080;stroke-width:0.264583"
       d="m 113.62165,94.499286 -12.44092,21.121734 29.23694,53.82577 -42.909117,16.24646 10.531919,19.31677 61.646338,-3.93466 8.80947,-8.26831 -19.47839,-79.89557 z"
       id="path1384" />
    <path
       style="fill:#000080;stroke-width:0.264583"
       d="M 84.739204,103.44593 87.468772,150.58891 71.763201,233.58075 41.727622,230.61431 61.718165,128.9282 Z"
       id="path1386" />
    <path
       style="fill:#000080;stroke-width:0.264583"
       d="m 95.775477,102.63657 11.487183,127.76586 35.83539,0.37712 -26.50191,-136.681563 z"
       id="path1388" />
    <path
       style="fill:#d45500;stroke-width:0.264583"
       d="m 80.500066,171.41599 20.025984,-13.71925 14.99683,14.60746 -26.997973,12.60478 -6.626095,-1.81204 z"
       id="path1390" />
    <path
       style="fill:#d45500;stroke-width:0.264583"
       d="m 94.331958,200.7606 -25.357825,1.29706 -2.170112,-5.69431 20.102239,-8.08009 3.089654,1.38985 z"
       id="path1392" />
  </g>
</svg>
