<?xml version="1.0" encoding="UTF-8" standalone="no"?>
<!-- Created with Inkscape (http://www.inkscape.org/) -->

<svg
   width="210mm"
   height="297mm"
   viewBox="0 0 210 297"
   version="1.1"
   id="svg1830"
   inkscape:version="1.2.2 (b0a8486541, 2022-12-01)"
   sodipodi:docname="perseen.svg"
   xmlns:inkscape="http://www.inkscape.org/namespaces/inkscape"
   xmlns:sodipodi="http://sodipodi.sourceforge.net/DTD/sodipodi-0.dtd"
   xmlns="http://www.w3.org/2000/svg"
   xmlns:svg="http://www.w3.org/2000/svg">
  <sodipodi:namedview
     id="namedview1832"
     pagecolor="#505050"
     bordercolor="#eeeeee"
     borderopacity="1"
     inkscape:showpageshadow="0"
     inkscape:pageopacity="0"
     inkscape:pagecheckerboard="0"
     inkscape:deskcolor="#505050"
     inkscape:document-units="mm"
     showgrid="false"
     inkscape:zoom="0.51758558"
     inkscape:cx="351.63267"
     inkscape:cy="684.91089"
     inkscape:window-width="1366"
     inkscape:window-height="744"
     inkscape:window-x="0"
     inkscape:window-y="0"
     inkscape:window-maximized="1"
     inkscape:current-layer="layer1" />
  <defs
     id="defs1827" />
  <g
     inkscape:label="Layer 1"
     inkscape:groupmode="layer"
     id="layer1">
    <path
       style="fill:#280b0b;stroke-width:0.264583"
       d="m 63.075803,218.61151 -4.701606,94.33271 78.664293,-4.81161 -25.58084,-97.7888 z"
       id="path2295" />
    <path
       style="fill:#ffb380;stroke-width:0.264583"
       d="m 74.398046,110.88308 1.447824,19.60283 13.452496,10.18935 10.891124,-12.03745 -3.568762,-18.09143 z"
       id="path2292" />
    <path
       style="fill:#ff9955;stroke-width:0.264583"
       d="m 75.447752,57.448896 -24.423873,18.661364 13.735452,33.29932 26.437235,7.71466 14.473874,-9.00699 3.78102,-32.009929 -14.284982,-17.635995 z"
       id="path2154" />
    <path
       style="fill:#ff9955;stroke-width:0.264583"
       d="M 24.716532,145.98417 19.208286,131.80799 4.5299259,154.2874 17.37197,163.04657 Z"
       id="path2156" />
    <path
       style="fill:#ff9955;stroke-width:0.264583"
       d="m 141.2878,128.87848 4.35758,17.19476 13.61589,9.43041 12.67873,-13.19469 -14.3224,-13.08569 z"
       id="path2158" />
    <path
       style="fill:#ff2a2a;stroke-width:0.264583"
       d="m 73.425372,124.96729 15.16571,14.45637 17.283008,-17.25285 14.18236,0.0841 10.23954,25.81702 -15.30318,71.67081 -51.344133,-1.06056 -11.170516,-62.87121 z"
       id="path2223" />
    <path
       style="fill:#280b0b;stroke-width:0.264583"
       d="m 72.336416,123.7579 -16.90487,-2.52301 -13.661133,54.22833 -13.179631,-31.20008 -1.736569,-1.51342 -13.621805,23.03 21.841102,36.22976 20.798181,-9.76695 2.478281,33.02877 h 22.325065 z"
       id="path2225" />
    <path
       style="fill:#280b0b;stroke-width:0.264583"
       d="m 102.68849,124.28143 -7.013634,104.08542 25.757254,-3.08765 6.46632,-45.61592 14.07691,19.39576 23.8183,-40.36563 -24.40356,-15.86888 -8.12805,17.39038 -5.5294,-38.64419 z"
       id="path2227" />
    <path
       style="fill:#e3dbdb;stroke-width:0.264583"
       d="m 88.211,128.85394 -0.738484,16.93555 6.612025,-10.54627 1.606571,5.78738 9.257438,-15.30212 -20.12913,2.77472 z"
       id="path2361" />
    <path
       style="fill:#e3dbdb;stroke-width:0.264583"
       d="m 82.804216,143.59395 v -15.25427 l -12.179176,-5.73501 2.132923,20.00347 6.220272,-7.91847 z"
       id="path2363" />
    <path
       style="fill:#501616;stroke-width:0.264583"
       d="m 76.823347,62.428662 17.38509,-6.619373 -1.386265,17.651339 15.670468,-0.599062 -2.416,28.952594 L 122.2778,75.0895 111.56173,44.912584 84.738799,43.145635 75.175559,49.214825 62.69243,44.629395 35.504762,69.418022 62.723302,112.6598 58.780632,75.843904 70.094633,74.802869 64.237396,60.306854 Z"
       id="path2428" />
    <path
       style="fill:none;fill-rule:evenodd;stroke:#000000;stroke-width:0.264583px;stroke-linecap:butt;stroke-linejoin:miter;stroke-opacity:1"
       d="m 103.42657,61.302092 2.86766,4.186293"
       id="path2430"
       inkscape:connector-type="polyline"
       inkscape:connector-curvature="0" />
  </g>
</svg>
