<?xml version="1.0" encoding="UTF-8" standalone="no"?>
<!-- Created with Inkscape (http://www.inkscape.org/) -->

<svg
   width="210mm"
   height="297mm"
   viewBox="0 0 210 297"
   version="1.1"
   id="svg1457"
   inkscape:version="1.2.2 (b0a8486541, 2022-12-01)"
   sodipodi:docname="womeen.svg"
   xmlns:inkscape="http://www.inkscape.org/namespaces/inkscape"
   xmlns:sodipodi="http://sodipodi.sourceforge.net/DTD/sodipodi-0.dtd"
   xmlns="http://www.w3.org/2000/svg"
   xmlns:svg="http://www.w3.org/2000/svg">
  <sodipodi:namedview
     id="namedview1459"
     pagecolor="#505050"
     bordercolor="#eeeeee"
     borderopacity="1"
     inkscape:showpageshadow="0"
     inkscape:pageopacity="0"
     inkscape:pagecheckerboard="0"
     inkscape:deskcolor="#505050"
     inkscape:document-units="mm"
     showgrid="false"
     inkscape:zoom="0.51758558"
     inkscape:cx="164.22405"
     inkscape:cy="684.91089"
     inkscape:window-width="1366"
     inkscape:window-height="744"
     inkscape:window-x="0"
     inkscape:window-y="0"
     inkscape:window-maximized="1"
     inkscape:current-layer="layer1" />
  <defs
     id="defs1454" />
  <g
     inkscape:label="Layer 1"
     inkscape:groupmode="layer"
     id="layer1">
    <path
       style="fill:#ff7f2a;stroke-width:0.264583"
       d="M 67.628367,48.028468 55.117655,73.808483 82.325352,98.176521 108.9751,77.32352 l 3.70929,-7.658639 4.28712,7.224736 9.49519,-15.968591 -10.26347,-8.372094 -5.39065,3.412181 -4.72343,-12.250383 -33.697915,0.526521 z"
       id="path1524" />
    <path
       style="fill:#241c1c;stroke-width:0.264583"
       d="m 76.374341,51.240412 -23.134733,-9.966921 7.981255,-21.827083 37.610258,-4.559684 35.844599,20.007182 0.51764,24.825279 -16.56402,25.570535 -8.03423,-11.536627 4.07153,-2.96744 3.5259,6.191732 5.96786,-17.103228 -10.78982,-6.718009 -3.86673,6.102107 -4.47277,-16.843928 z"
       id="path1589" />
    <path
       style="fill:#241c1c;stroke-width:0.264583"
       d="m 124.14318,31.067314 6.75189,-12.770057 17.20709,5.068094 15.75281,79.629969 -16.11729,11.85703 -16.24902,-5.21518 z"
       id="path1591" />
    <path
       style="fill:#ff7f2a;stroke-width:0.264583"
       d="M 83.744254,90.773506 88.696976,116.44597 108.50222,96.207182 105.24458,75.982668 Z"
       id="path1656" />
    <path
       style="fill:#c8b7b7;stroke-width:0.264583"
       d="m 92.241157,122.29491 -10.013399,-16.71216 -32.269779,12.43255 13.045863,84.106 52.461068,4.50729 22.93015,-73.80886 -23.13998,-27.05544 z"
       id="path1721" />
    <path
       style="fill:#c8b7b7;stroke-width:0.264583"
       d="m 83.914109,119.38074 28.959971,-32.144769 7.02163,23.669729 -9.68492,-7.05736 z"
       id="path1723" />
    <path
       style="fill:#c8b7b7;stroke-width:0.264583"
       d="m 90.895889,113.80443 -8.158973,-13.7517 -16.305241,3.46209 9.321871,4.32954 17.012153,25.17694 24.091651,-20.77291 -6.7558,-12.540022 z"
       id="path1725" />
    <path
       style="fill:#241c1c;stroke-width:0.264583"
       d="m 57.377438,112.65428 9.566547,58.64796 64.277505,-8.21967 -0.93358,31.18396 -90.273158,-2.71044 2.983976,-74.28053 z"
       id="path1727" />
    <path
       style="fill:#241c1c;stroke-width:0.264583"
       d="m 135.71856,115.87884 -15.13192,87.97601 -69.457988,-4.80912 5.799219,-23.9446 45.357789,6.01876 19.3363,-76.56956 z"
       id="path1729" />
    <path
       style="fill:#241c1c;stroke-width:0.264583"
       d="m 70.386108,110.37744 -3.86467,33.59605 9.076949,72.13378 -32.380134,0.19095 7.902879,-100.6768 z"
       id="path1731" />
    <path
       style="fill:#241c1c;stroke-width:0.264583"
       d="m 126.11376,108.55659 20.86416,23.92816 -13.29375,91.18082 -38.658469,-2.56661 z"
       id="path1733" />
    <path
       style="fill:#ff7f2a;stroke-width:0.264583"
       d="m 117.77483,170.00701 13.54703,-4.56738 6.5705,22.13301 -19.12636,1.02293 z"
       id="path1787" />
    <path
       style="fill:#ff7f2a;stroke-width:0.264583"
       d="m 55.269071,199.29632 -9.00104,-0.24851 1.81755,-7.36029 10.143879,1.53567 z"
       id="path1789" />
    <path
       style="fill:#241c1c;stroke-width:0.264583"
       d="m 65.680587,202.0367 44.516033,2.83326 18.92252,37.18592 2.34827,78.41973 -91.385642,-3.35018 z"
       id="path1791" />
  </g>
</svg>
